<svg width="27" height="28" viewBox="0 0 27 28" fill="none" xmlns="http://www.w3.org/2000/svg">
<path d="M4.5 19H6.75V23.7612L12.4886 19H18C19.2409 19 20.25 17.9535 20.25 16.6667V7.33333C20.25 6.0465 19.2409 5 18 5H4.5C3.25912 5 2.25 6.0465 2.25 7.33333V16.6667C2.25 17.9535 3.25912 19 4.5 19Z" fill="black"/>
<path d="M22.5 0.333252H9C7.75912 0.333252 6.75 1.37975 6.75 2.66659H20.25C21.4909 2.66659 22.5 3.71309 22.5 4.99992V14.3333C23.7409 14.3333 24.75 13.2868 24.75 11.9999V2.66659C24.75 1.37975 23.7409 0.333252 22.5 0.333252Z" fill="black"/>
</svg>
