   <svg
            xmlns="http://www.w3.org/2000/svg"
            fill="red"
            viewBox="0 0 24 24"
            class="w-4 h-4 text-gray-600 hover:text-red-600 transition-colors duration-200"
          >
            <path
              fill-rule="evenodd"
              d="M9 3a1 1 0 00-1 1v1H4.75a.75.75 0 000 1.5H5.5l.896 12.544A2.25 2.25 0 008.64 21h6.72a2.25 2.25 0 002.244-1.956L18.5 6.5h.75a.75.75 0 000-1.5H16V4a1 1 0 00-1-1H9zm2 5a.75.75 0 00-1.5 0v9a.75.75 0 001.5 0V8zm4 0a.75.75 0 00-1.5 0v9a.75.75 0 001.5 0V8z"
              clip-rule="evenodd"
            />
          </svg>