<svg width="15" height="17" viewBox="0 0 15 17" fill="none" xmlns="http://www.w3.org/2000/svg">
<path d="M11.1562 4.65625C11.1562 5.62595 10.771 6.55593 10.0854 7.24161C9.39968 7.92729 8.4697 8.3125 7.5 8.3125C6.5303 8.3125 5.60032 7.92729 4.91464 7.24161C4.22896 6.55593 3.84375 5.62595 3.84375 4.65625C3.84375 3.68655 4.22896 2.75657 4.91464 2.07089C5.60032 1.38521 6.5303 1 7.5 1C8.4697 1 9.39968 1.38521 10.0854 2.07089C10.771 2.75657 11.1562 3.68655 11.1562 4.65625ZM14 15.625V14C14 13.138 13.6576 12.3114 13.0481 11.7019C12.4386 11.0924 11.612 10.75 10.75 10.75H4.25C3.38805 10.75 2.5614 11.0924 1.9519 11.7019C1.34241 12.3114 1 13.138 1 14V15.625H14Z" stroke="black" stroke-width="2" stroke-linecap="square"/>
</svg>
