<?xml version="1.0" encoding="UTF-8"?>
<svg version="1.1" xmlns="http://www.w3.org/2000/svg" width="512" height="512">
<path d="M0 0 C10.01633743 8.55779201 17.17671973 19.33538411 21 32 C21 32.99 21 33.98 21 35 C22.17240234 34.98889694 23.34480469 34.97779388 24.55273438 34.96635437 C35.61669718 34.86487218 46.68056519 34.78998346 57.74488831 34.74093914 C63.43282512 34.71487694 69.12038536 34.67953988 74.80810547 34.62280273 C80.30000495 34.56836357 85.79154286 34.53855406 91.28369141 34.52561378 C93.37603444 34.51639535 95.46835831 34.4983937 97.56054688 34.47134972 C100.49782638 34.43490164 103.43362347 34.4300613 106.37109375 34.43237305 C107.2306517 34.41439667 108.09020966 34.39642029 108.97581482 34.37789917 C115.12941955 34.43009405 119.22521871 36.09617992 124 40 C126.93637158 43.62113808 127.41029342 46.38832633 127.375 51 C127.38273438 52.010625 127.39046875 53.02125 127.3984375 54.0625 C126.76874185 58.70496206 124.61595262 61.84970467 121 64.75 C116.11487366 68.41384475 111.90029107 68.13783299 106.03051758 68.11352539 C104.65460701 68.11374443 104.65460701 68.11374443 103.25090027 68.1139679 C100.21541997 68.11327057 97.18000084 68.10548656 94.14453125 68.09765625 C92.04131606 68.09579143 89.93810043 68.09436783 87.83488464 68.09336853 C82.29630334 68.08954839 76.7577482 68.07972237 71.21917725 68.06866455 C65.56864781 68.05843964 59.91811415 68.05386859 54.26757812 68.04882812 C43.17837391 68.03809968 32.08918913 68.02102926 21 68 C20.86513184 68.91442871 20.73026367 69.82885742 20.59130859 70.77099609 C17.89697503 85.48414873 6.98011428 97.64317566 -4.5 106.4375 C-16.42898954 114.60479113 -29.26233547 118.59277011 -43.6875 118.5 C-45.25516113 118.49141968 -45.25516113 118.49141968 -46.85449219 118.48266602 C-64.76318376 118.07339536 -79.56565631 110.96322444 -92.53125 98.59375 C-100.30942203 90.42174647 -106.40656917 80.04653337 -109 69 C-109.55633767 68.99902319 -110.11267534 68.99804638 -110.68587172 68.99703997 C-143.65387652 68.93877676 -176.62180564 68.8649867 -209.58972738 68.77101372 C-213.54761091 68.75974546 -217.50549479 68.74860702 -221.46337891 68.73754883 C-222.25132734 68.73534514 -223.03927578 68.73314146 -223.85110144 68.730871 C-236.611961 68.69549189 -249.3728205 68.67063122 -262.13371094 68.64965298 C-275.22610286 68.62789581 -288.3184311 68.5948462 -301.41076887 68.55129844 C-309.49042444 68.52478025 -317.57000065 68.50708612 -325.64969759 68.50065396 C-331.84365796 68.49477984 -338.03747272 68.47319977 -344.23137283 68.44572449 C-346.77345527 68.43691588 -349.3155613 68.43322749 -351.85765839 68.43499184 C-355.32398652 68.43663834 -358.78975979 68.41999764 -362.25601196 68.39872742 C-363.26574526 68.40357499 -364.27547857 68.40842257 -365.31580985 68.41341704 C-372.23612692 68.34316706 -376.51174661 67.2117808 -381.8125 62.5 C-385.66510025 58.09702829 -385.39811754 53.63977556 -385.34375 48.01953125 C-384.8490745 43.6742567 -383.35578818 40.80169292 -380 38 C-374.46689251 34.43789663 -369.57562787 34.58442732 -363.2180481 34.63923645 C-362.13078017 34.63667318 -361.04351225 34.6341099 -359.92329681 34.63146895 C-356.27960567 34.62652707 -352.63632876 34.64303122 -348.99267578 34.65942383 C-346.38098663 34.66027001 -343.76929677 34.65979513 -341.15760803 34.65809631 C-335.5345951 34.65652461 -329.91168674 34.66592297 -324.2887001 34.68280983 C-316.15886133 34.70720931 -308.02907304 34.71500606 -299.89920162 34.7187738 C-286.70848857 34.7253368 -273.51783124 34.74529385 -260.32714844 34.77368164 C-247.51497679 34.80122613 -234.70282029 34.8224578 -221.890625 34.83520508 C-221.10064751 34.83599325 -220.31067003 34.83678142 -219.49675383 34.83759347 C-215.53359885 34.84150864 -211.57044376 34.84529975 -207.6072886 34.84902918 C-174.73815184 34.88012037 -141.86908338 34.93295204 -109 35 C-108.79626266 34.31075439 -108.59252533 33.62150879 -108.38261414 32.91137695 C-108.11415176 32.00863037 -107.84568939 31.10588379 -107.5690918 30.17578125 C-107.30347946 29.28028564 -107.03786713 28.38479004 -106.76420593 27.4621582 C-101.93465178 11.90205083 -89.65991694 -0.73491534 -75.5625 -8.375 C-50.90797311 -21.1905331 -21.26440466 -17.70472459 0 0 Z M-70.3125 29.3125 C-76.60914354 37.18330443 -78.76850411 46.10906751 -78 56 C-76.11264464 66.47642171 -70.87785629 74.35788643 -62.2890625 80.5625 C-54.86827877 85.22265087 -46.7105113 86.79603472 -38.0625 85.375 C-27.99317431 82.98646228 -21.06572343 78.40515948 -15 70 C-9.57443047 61.06746813 -8.44140286 51.51917808 -10.578125 41.2109375 C-13.85267048 31.83382998 -20.5170373 24.94379479 -29.25 20.4375 C-43.98566456 13.55695822 -59.36807262 17.49032405 -70.3125 29.3125 Z " fill="#000000" transform="translate(385,343)"/>
<path d="M0 0 C1.57648315 0.01244751 1.57648315 0.01244751 3.18481445 0.02514648 C22.58328832 0.44538942 37.89324222 8.66127517 51.1875 22.4375 C58.13766813 29.9791718 63.69442228 40.31292667 65.1875 50.4375 C66.35181549 50.43083817 67.51613098 50.42417633 68.71572876 50.41731262 C79.6920742 50.35647894 90.6683854 50.31151645 101.64486122 50.28206348 C107.28788915 50.26641236 112.93078091 50.24518392 118.57373047 50.21118164 C124.02020988 50.17856885 129.46655837 50.16064282 134.9131279 50.15286827 C136.99034053 50.14732824 139.06754606 50.13650993 141.14470291 50.12030983 C144.05577288 50.0985103 146.96630285 50.09553416 149.87744141 50.09692383 C151.16353806 50.08074509 151.16353806 50.08074509 152.47561646 50.0642395 C158.15130064 50.09352768 162.51341561 50.94126445 166.83203125 54.97265625 C171.6027943 61.21134639 171.902365 65.63525914 171.1875 73.4375 C168.88303316 78.59950573 165.36824425 81.34029146 160.1875 83.4375 C157.00366693 83.96846261 153.89375195 83.94527759 150.67211914 83.89160156 C149.74450775 83.89218567 148.81689636 83.89276978 147.86117554 83.89337158 C144.81461328 83.89059907 141.76904624 83.85954629 138.72265625 83.828125 C136.60274286 83.82065965 134.48282255 83.81496811 132.36289978 83.81097412 C126.79788989 83.79574101 121.23330115 83.75647891 115.66845703 83.7121582 C109.98410742 83.67115554 104.29968941 83.65295242 98.61523438 83.6328125 C87.47247176 83.58998265 76.33002098 83.52175925 65.1875 83.4375 C64.99547752 84.35336632 64.99547752 84.35336632 64.79957581 85.28773499 C64.54022499 86.49507545 64.54022499 86.49507545 64.27563477 87.72680664 C64.02173729 88.92111046 64.02173729 88.92111046 63.76271057 90.13954163 C61.26194696 100.13005808 54.34731111 108.36278002 47.1875 115.4375 C46.50042969 116.14648438 45.81335938 116.85546875 45.10546875 117.5859375 C32.57984129 129.71650806 15.03469716 134.84785797 -2.12109375 134.5859375 C-20.60094995 133.56672918 -37.0351642 125.73764004 -49.8125 112.4375 C-57.22922387 103.55301817 -62.08384717 94.61587634 -64.8125 83.4375 C-65.6490413 83.4403479 -65.6490413 83.4403479 -66.50248241 83.44325334 C-99.56238145 83.55516496 -132.62223297 83.64094345 -165.68227899 83.69282665 C-169.65260689 83.69908012 -173.6229344 83.70555173 -177.59326172 83.7121582 C-178.38367615 83.71346976 -179.17409058 83.71478131 -179.98845696 83.7161326 C-192.78360126 83.737884 -205.57863313 83.77730403 -218.37371075 83.82326398 C-231.50448646 83.87003608 -244.63520333 83.89779698 -257.76605892 83.90794247 C-265.86733118 83.9148001 -273.96828566 83.93645214 -282.06946009 83.97708233 C-288.28345242 84.00665846 -294.49720293 84.00977222 -300.71125603 84.00303841 C-303.25898126 84.00441447 -305.80671847 84.01436697 -308.35437202 84.03352737 C-311.83337013 84.05840983 -315.31100942 84.05242103 -318.79003906 84.03877258 C-320.30173691 84.06061889 -320.30173691 84.06061889 -321.84397411 84.08290654 C-328.38099035 84.01360343 -332.76554171 82.68997438 -337.8125 78.4375 C-340.74887158 74.81636192 -341.22279342 72.04917367 -341.1875 67.4375 C-341.19523437 66.426875 -341.20296875 65.41625 -341.2109375 64.375 C-340.58124185 59.73253794 -338.42845262 56.58779533 -334.8125 53.6875 C-331.14994295 50.94058221 -328.76701256 50.31359369 -324.32037067 50.2988348 C-323.3947811 50.29336036 -322.46919152 50.28788591 -321.51555377 50.28224558 C-320.49708195 50.28126747 -319.47861012 50.28028936 -318.42927551 50.27928162 C-317.34865442 50.27434364 -316.26803332 50.26940566 -315.15466613 50.26431805 C-311.51562863 50.24889895 -307.87660883 50.24057048 -304.23754883 50.23217773 C-301.63615258 50.22260268 -299.0347579 50.21259282 -296.43336487 50.20217896 C-290.82344616 50.18041042 -285.21352506 50.16226731 -279.6035862 50.14657402 C-271.49251837 50.12387883 -263.38147667 50.09573552 -255.270431 50.06625474 C-242.11136983 50.01857453 -228.95229798 49.97531151 -215.79321289 49.93481445 C-203.00902475 49.89546171 -190.2248461 49.85403602 -177.44067383 49.80981445 C-176.65289517 49.80709018 -175.8651165 49.80436591 -175.05346576 49.80155908 C-171.10148273 49.78787964 -167.14949985 49.77415936 -163.19751704 49.76041877 C-130.40253094 49.64644725 -97.60752512 49.53963938 -64.8125 49.4375 C-64.41853027 48.32580444 -64.41853027 48.32580444 -64.01660156 47.19165039 C-63.6656543 46.21188232 -63.31470703 45.23211426 -62.953125 44.22265625 C-62.60797852 43.25465088 -62.26283203 42.28664551 -61.90722656 41.28930664 C-55.42414153 24.40060987 -42.46212801 12.85690625 -26.5625 4.9453125 C-17.85954545 1.21859126 -9.42231104 -0.0966508 0 0 Z M-22.4375 41.0625 C-30.13425682 48.03713547 -33.67548231 57.08964894 -34.1875 67.25 C-33.96151977 76.44457053 -30.11379869 84.81678064 -23.8125 91.4375 C-16.82717898 97.8141416 -9.05396589 100.94797326 0.375 101.6875 C10.87057189 100.99926578 19.22601591 96.79411712 26.4375 89.25 C32.9914653 81.40588405 34.92287761 74.08344039 34.55859375 63.89453125 C33.44776444 53.54627924 29.00960336 46.25109318 21.1875 39.4375 C7.24299324 29.85627439 -9.2466494 30.86695172 -22.4375 41.0625 Z " fill="#000000" transform="translate(340.8125,50.5625)"/>
<path d="M0 0 C2.472695 2.16883079 4.76962406 4.41722115 7.04296875 6.79296875 C7.74808594 7.47875 8.45320312 8.16453125 9.1796875 8.87109375 C17.09717657 17.01479679 21.4171036 26.88287258 24.04296875 37.79296875 C24.60353836 37.79144987 25.16410796 37.78993099 25.74166453 37.78836608 C58.9601088 37.69886817 92.17852287 37.63022983 125.39706067 37.58870743 C129.38498726 37.58370456 133.37291361 37.57852728 137.36083984 37.57324219 C138.15476951 37.57219295 138.94869918 37.5711437 139.76668732 37.57006267 C152.62459301 37.55265391 165.48242722 37.52111364 178.3402905 37.48435757 C191.53207978 37.44696122 204.7238316 37.42473567 217.91567171 37.41661477 C226.05682162 37.41112427 234.19776949 37.3937785 242.33885722 37.36130288 C248.57978959 37.33767423 254.8205677 37.33514561 261.0615387 37.34053802 C263.62299723 37.33943564 266.18446327 37.33145346 268.74587631 37.31614685 C272.23855205 37.29629519 275.73035782 37.30101289 279.22305298 37.31195068 C280.74932578 37.29447363 280.74932578 37.29447363 282.30643237 37.27664351 C288.07724581 37.32561361 291.49288133 37.87970843 296.04296875 41.79296875 C299.67130538 45.61227047 300.35297333 48.67575881 300.54296875 53.79296875 C300.35297333 58.91017869 299.67130538 61.97366703 296.04296875 65.79296875 C290.61411535 70.46200357 286.04573142 70.35211196 279.22305298 70.27398682 C278.1317015 70.27740452 277.04035002 70.28082222 275.91592729 70.28434348 C272.25830039 70.29093306 268.60140698 70.26892732 264.94384766 70.24707031 C262.32230649 70.24594207 259.70076406 70.24657523 257.07922363 70.24884033 C251.43489614 70.25093597 245.79075384 70.23840458 240.14647293 70.21588898 C231.98586049 70.1833567 223.82533744 70.17296072 215.66466717 70.16793701 C202.42401774 70.15918627 189.18346697 70.13257673 175.94287109 70.09472656 C163.08219903 70.05800073 150.22155378 70.02969178 137.36083984 70.01269531 C136.56787536 70.01164442 135.77491088 70.01059352 134.95791717 70.00951079 C130.97977819 70.00429057 127.00163902 69.99923575 123.02349973 69.99426317 C90.02991758 69.95280803 57.03645637 69.88236566 24.04296875 69.79296875 C23.84389923 70.54819321 23.64482971 71.30341766 23.43972778 72.08152771 C23.17489594 73.07225784 22.91006409 74.06298798 22.63720703 75.08374023 C22.37626251 76.06583969 22.11531799 77.04793915 21.84646606 78.05979919 C18.97215296 87.83703794 12.09626163 95.70255327 5.04296875 102.79296875 C4.15738281 103.73076172 4.15738281 103.73076172 3.25390625 104.6875 C-8.95647734 116.6020373 -26.46077772 121.33771265 -43.08227539 121.21313477 C-61.69803775 120.59791635 -78.50408359 112.78892668 -91.36328125 99.26171875 C-97.78181313 91.81622177 -102.94727041 83.79300113 -105.03149414 74.09814453 C-105.20636856 73.29095978 -105.38124298 72.48377502 -105.56141663 71.65213013 C-105.75724586 70.73184525 -105.75724586 70.73184525 -105.95703125 69.79296875 C-107.74108871 69.80629242 -107.74108871 69.80629242 -109.56118774 69.81988525 C-120.77296784 69.90099181 -131.98468836 69.96094425 -143.19669533 70.00021744 C-148.9608445 70.02108702 -154.72475672 70.0493937 -160.48876953 70.09472656 C-166.05196841 70.13820597 -171.61493945 70.16211059 -177.17829514 70.17247772 C-179.30018068 70.17986527 -181.42205383 70.19429141 -183.54384232 70.21588898 C-186.51729473 70.2449503 -189.48980719 70.24892354 -192.46337891 70.24707031 C-193.33947815 70.26145142 -194.21557739 70.27583252 -195.1182251 70.29064941 C-200.56532707 70.25394415 -203.62575368 69.40004739 -207.95703125 65.79296875 C-211.58536788 61.97366703 -212.26703583 58.91017869 -212.45703125 53.79296875 C-212.26703583 48.67575881 -211.58536788 45.61227047 -207.95703125 41.79296875 C-202.77366933 37.47627609 -198.90998449 37.23304664 -192.46337891 37.33886719 C-191.05755051 37.33799103 -191.05755051 37.33799103 -189.62332153 37.33709717 C-186.53886317 37.33987425 -183.45538239 37.37094895 -180.37109375 37.40234375 C-178.22733081 37.40980746 -176.08356103 37.41549978 -173.93978882 37.41949463 C-168.30736332 37.4347406 -162.67535278 37.47401388 -157.04309082 37.51831055 C-151.29180514 37.55928539 -145.54045218 37.5775104 -139.7890625 37.59765625 C-128.5115368 37.6405088 -117.23431858 37.70874789 -105.95703125 37.79296875 C-105.82647842 37.1794455 -105.6959256 36.56592224 -105.56141663 35.93380737 C-105.38654221 35.12662262 -105.21166779 34.31943787 -105.03149414 33.48779297 C-104.85969131 32.68864471 -104.68788849 31.88949646 -104.51087952 31.06613159 C-101.0637521 16.91806535 -89.73577339 4.71521917 -77.95703125 -3.20703125 C-53.3420784 -17.55426861 -23.14840766 -17.27721312 0 0 Z M-66.95703125 30.79296875 C-73.96524316 40.28262908 -75.97945626 49.08037839 -74.95703125 60.79296875 C-72.77803504 70.20049133 -67.10585607 78.11578083 -58.95703125 83.23046875 C-50.29981872 87.92304191 -41.78294274 89.17861018 -32.08984375 87.2109375 C-22.97124109 84.38236245 -15.77363213 78.40689132 -10.95703125 70.16796875 C-6.26419624 60.56672681 -5.50904218 51.31513161 -8.921875 41.171875 C-12.77348197 32.32044614 -20.31612096 25.0013816 -29.20703125 21.35546875 C-42.95791512 16.96810111 -56.86160332 20.44220899 -66.95703125 30.79296875 Z " fill="#000000" transform="translate(211.95703125,202.20703125)"/>
</svg>
