<?xml version="1.0" encoding="UTF-8"?>
<svg id="Layer_6" data-name="Layer 6" xmlns="http://www.w3.org/2000/svg" viewBox="0 0 1080 772.89">
  <defs>
    <style>
      .cls-1 {
        fill: #630a00;
      }

      .cls-2 {
        fill: #fff;
      }
    </style>
  </defs>
  <path class="cls-1" d="M873.53,612.2c0,49.64-16.24,95.47-43.72,132.5h-99.94c-11.63-42.66-50.62-73.99-96.99-73.99s-85.4,31.33-97.03,73.99h-105.97c2.47-13.52,3.74-27.44,3.74-41.65,0-10.65-.73-21.11-2.14-31.4-.47-3.42-1.02-6.8-1.64-10.18-4.76-26.42-14.25-51.93-27.8-75.08-7.27-12.9-16.35-25-26.13-36.09-20.86-23.62-46.92-42.34-74.86-56.8-9.22-4.77-18.13-9.36-25.73-16.59-6.95-6.62,4.07-9.33,8.84-12.14,6.1-3.59,27.21-14.49,17.11-23.18-2.04-1.76-4.64-2.72-7.17-3.65-12.3-4.51-25.67-8.08-37.28-14.16-8.66-4.54-16.71-10.27-23.79-17-13.88-13.18-24.33-30.66-26.25-49.96-.62-6.25-.34-12.58.85-18.75,1.16-6.11,3.49-12.5,11.27-13.88,8.5,1.71,6.69,8.58,7.99,14.03,1.27,5.38,6.54,10.36,12.28,10.25,5.81-.15,10.83-7.23,12.36-12.14,1.93-6.21.98-12.97-1.24-19.08-2.18-6.11-5.56-11.67-8.65-17.37-.22-.44-.44-.87-.65-1.27-14.75-28.05-22.17-59.89-21.4-91.54.73-31.29,10.18-61.92,26.09-88.78,13.92-23.51,33.32-43.72,56.07-58.84,24.86-16.5,53.78-26.06,83.29-29.91,25.62-3.34,52.51-.84,75.59,10.72,16.86,8.43,31.47,22.02,40.16,38.81,12.54,24.2,9.19,56.44-10.28,76.21-8.61,8.76-20.06,14.72-32.2,16.68-13.34,2.18-29.11-.25-40.37-8.07-7.3-5.09-13.01-12.72-15.08-21.37-1.64-6.9-1.38-14.46,2.54-20.6,3.2-4.94,8.43-8.58,14.21-9.78,3.05-.62,6.65-.44,8.65,1.96,2.18,2.58,1.49,6.4.73,9.7-1.24,5.2-.4,9.78,3.49,13.7,5.96,6.07,16.5,5.38,22.89.36,6.18-4.83,9.05-13.23,8.32-21.04-1.27-13.26-12.03-24.35-24.64-28.56-25.34-8.52-56.05,6.44-73.69,24.76-16.4,17.03-25.44,41.2-23.13,64.73,2.31,23.53,16.29,45.85,36.99,57.28,17.75,9.79,38.82,11.36,59.09,11.02,37.6-.62,73.28.1,109.85,10.13,34.65,9.5,67.71,25.2,96.46,46.82,3.65,2.75,7.22,5.6,10.8,8.43,12.25,9.67,22.89,23.33,31.87,35.8,7.45,10.32,13.95,21.3,19.26,32.85,7.12,15.55,13.26,31.03,15.88,47.97,2.43,15.63,2.33,31.65-.47,47.24-5.09,28.09-21.84,54.33-43.97,72.21-23.37,18.93-54.47,29.15-84.6,28.09-22.31-.8-44.92-9.05-60.29-25.29-3.31-3.45-6.25-7.3-8.76-11.37-18.93-30.71-16.86-82.86,30.13-93.9,1.74-.4,3.52-.69,5.31-.84,9.01-.76,18.86.62,26.82,5.49,10.9,6.61,16.28,19.26,13.16,31.69-2.47,9.84-4.08,24.29,8.58,27.69,6.01,1.61,12.62-.62,17.27-4.74,4.65-4.13,7.55-9.93,9.31-15.89,5.12-17.38.94-39.36-12.41-52.13-14.29-13.66-33.48-21.15-53.19-21.25-27-.11-54.07,11.7-71.74,32.23-10.65,12.39-17.66,27.69-20.68,43.72-4.83,25.91,1.82,52.95,18.32,73.63,14.83,18.61,36.09,31.43,58.76,38.7,18.5,5.92,37.98,8.32,57.35,8.69,29.36.62,60.29-11.12,84.31-27.76,40.99-28.38,67.81-75.73,67.81-129.34,0-6.26-.4-12.53-1.16-18.75-.69-5.66-1.83-11.23-2.99-16.81-.1-.48-.13-1.12.31-1.34.34-.17.74.04,1.06.24,3.58,2.23,7.19,4.4,10.74,6.69,4.04,2.61,8,5.34,11.87,8.21,7.72,5.71,15.06,11.92,21.98,18.57s13.4,13.75,19.41,21.23c6.02,7.5,11.56,15.4,16.56,23.62,5.04,8.27,9.53,16.87,13.44,25.73,3.96,8.95,7.32,18.17,10.05,27.56,2.78,9.55,4.91,19.29,6.38,29.12,1.51,10.07,2.32,20.24,2.44,30.41.01.93.02,1.86.02,2.79Z"/>
  <path class="cls-2" d="M527.7,357.53c-.05.38-.12.77-.2,1.15-.64,2.79-2.53,5.44-5.27,6.31-3.33,1.06-7-.75-9.31-3.38s-3.6-5.96-5.16-9.09c-8.16-16.34-25.16-27.9-43.35-29.5-1.6-.14-4.92-.34-5.29-2.47-.34-1.98,2.52-2.68,3.9-3.23,4.01-1.59,8.23-2.62,12.52-3.08,8.46-.91,17.17.37,24.92,3.9,13.07,5.94,23.15,18.1,26.57,32.04.59,2.41.99,4.92.67,7.36Z"/>
  <path class="cls-2" d="M330.16,325.89c-1.46,8.28-.99,16.97,2.28,24.79,6.34,15.17,21.76,24.65,37.37,29.8,15.61,5.15,32.18,6.98,47.72,12.35,4.9,1.7,9.76,3.78,13.8,7.04,10.65,8.6,12.39,25.71,4.92,36.81-6.45,9.58-18.43,14.24-29.97,14.69-14.6.57-31.78-3.55-45.22-9.07s-25.92-13.67-36.35-23.86c-5.94-5.81-11.23-12.29-15.67-19.32-9.87-15.62-15.78-34.24-13.83-52.62,1.21-11.45,5.73-22.65,13.06-31.56,3.56-4.33,8.07-8.77,13.12-11.34,3.34-1.7,11.42-3.93,14.38-.55,2.49,2.83-.41,6.83-1.57,9.51-1.71,3.97-3.04,8.11-3.86,12.35-.06.32-.12.64-.18.96Z"/>
  <path class="cls-1" d="M590.37,739.75c1.86-4.08,15.67-33.21,44.89-38.48,16.28-2.93,42.17.67,47.02,15.84,2.92,9.14-2.96,18.8-5.97,23.06-28.65-.14-57.29-.29-85.93-.43Z"/>
</svg>