<?xml version="1.0" encoding="UTF-8"?>
<svg id="Layer_6" data-name="Layer 6" xmlns="http://www.w3.org/2000/svg" viewBox="0 0 1080 772.89">
  <defs>
    <style>
      .cls-1 {
        fill: #fff;
      }
    </style>
  </defs>
  <g>
    <path d="M809.71,499.74c0,40.14-13.14,77.2-35.35,107.14h-80.81c-9.4-34.5-40.94-59.83-78.43-59.83s-69.06,25.33-78.46,59.83h-85.69c2-10.93,3.03-22.19,3.03-33.68,0-8.61-.59-17.07-1.73-25.39-.38-2.76-.82-5.5-1.32-8.23-3.85-21.36-11.52-41.99-22.48-60.71-5.88-10.43-13.22-20.22-21.13-29.18-16.87-19.1-37.94-34.24-60.54-45.93-7.45-3.86-14.66-7.57-20.81-13.42-5.62-5.35,3.29-7.54,7.15-9.81,4.93-2.9,22-11.72,13.84-18.75-1.65-1.42-3.75-2.2-5.8-2.95-9.94-3.65-20.76-6.53-30.15-11.45-7-3.67-13.51-8.3-19.24-13.75-11.22-10.66-19.67-24.79-21.23-40.4-.5-5.05-.27-10.17.68-15.16.94-4.94,2.82-10.11,9.11-11.23,6.88,1.38,5.41,6.94,6.47,11.34,1.03,4.35,5.29,8.38,9.93,8.29,4.7-.12,8.76-5.85,9.99-9.82,1.56-5.03.79-10.49-1-15.43-1.76-4.94-4.5-9.43-6.99-14.05-.18-.35-.35-.71-.53-1.03-11.93-22.69-17.93-48.43-17.31-74.02.59-25.3,8.23-50.07,21.1-71.79,11.26-19.01,26.95-35.35,45.34-47.58,20.1-13.34,43.49-21.07,67.35-24.18,20.72-2.7,42.46-.68,61.12,8.67,13.64,6.82,25.45,17.81,32.47,31.38,10.14,19.57,7.43,45.64-8.32,61.62-6.96,7.08-16.22,11.9-26.04,13.49-10.78,1.76-23.54-.21-32.65-6.52-5.91-4.11-10.52-10.29-12.2-17.28-1.32-5.58-1.12-11.7,2.06-16.66,2.59-4,6.82-6.94,11.49-7.9,2.47-.5,5.38-.35,6.99,1.59,1.76,2.09,1.2,5.17.59,7.85-1,4.2-.32,7.9,2.82,11.08,4.82,4.91,13.34,4.35,18.51.29,5-3.91,7.32-10.7,6.73-17.01-1.03-10.73-9.73-19.69-19.92-23.1-20.49-6.89-45.32,5.21-59.59,20.02-13.26,13.77-20.57,33.31-18.7,52.34,1.87,19.03,13.17,37.08,29.91,46.32,14.35,7.92,31.39,9.19,47.78,8.91,30.41-.51,59.26.08,88.83,8.19,28.02,7.68,54.76,20.38,78,37.86,2.95,2.22,5.84,4.53,8.73,6.82,9.9,7.82,18.51,18.87,25.77,28.95,6.02,8.35,11.28,17.22,15.57,26.57,5.76,12.58,10.73,25.1,12.84,38.79,1.97,12.64,1.88,25.6-.38,38.2-4.11,22.72-17.66,43.93-35.56,58.39-18.9,15.31-44.05,23.57-68.41,22.72-18.04-.65-36.32-7.32-48.75-20.45-2.67-2.79-5.05-5.91-7.08-9.2-15.31-24.83-13.64-67,24.36-75.93,1.41-.32,2.85-.56,4.29-.68,7.29-.62,15.25.5,21.69,4.44,8.82,5.35,13.16,15.57,10.64,25.62-2,7.96-3.3,19.64,6.93,22.39,4.86,1.3,10.2-.5,13.96-3.84,3.76-3.34,6.1-8.03,7.53-12.85,4.14-14.05.76-31.83-10.03-42.15-11.55-11.05-27.08-17.1-43.01-17.18-21.83-.09-43.73,9.46-58.01,26.07-8.61,10.02-14.28,22.39-16.72,35.35-3.91,20.95,1.47,42.82,14.81,59.54,11.99,15.05,29.18,25.42,47.52,31.3,14.96,4.79,30.71,6.73,46.37,7.02,23.74.5,48.75-8.99,68.18-22.45,33.15-22.95,54.84-61.24,54.84-104.59,0-5.07-.32-10.13-.94-15.16-.56-4.58-1.48-9.08-2.42-13.59-.08-.39-.11-.9.25-1.08.27-.13.6.03.86.19,2.9,1.8,5.82,3.56,8.68,5.41,3.27,2.11,6.47,4.32,9.6,6.63,6.24,4.62,12.18,9.64,17.78,15.02,5.59,5.38,10.84,11.12,15.7,17.17,4.87,6.07,9.35,12.45,13.39,19.1s7.71,13.64,10.87,20.8c3.2,7.24,5.92,14.69,8.13,22.29,2.25,7.72,3.97,15.6,5.16,23.55,1.22,8.14,1.87,16.36,1.97,24.59,0,.75.01,1.5.01,2.26Z"/>
    <path class="cls-1" d="M530.06,293.8c-.04.31-.09.62-.17.93-.52,2.26-2.05,4.4-4.26,5.1-2.69.86-5.66-.61-7.53-2.73-1.86-2.12-2.91-4.82-4.17-7.35-6.6-13.21-20.35-22.56-35.06-23.86-1.3-.11-3.98-.28-4.28-2-.28-1.6,2.04-2.17,3.15-2.61,3.24-1.29,6.66-2.12,10.12-2.49,6.84-.74,13.88.3,20.15,3.15,10.57,4.8,18.72,14.63,21.48,25.91.48,1.95.8,3.98.54,5.95Z"/>
    <path class="cls-1" d="M370.32,268.22c-1.18,6.7-.8,13.72,1.84,20.05,5.13,12.26,17.6,19.94,30.22,24.1,12.62,4.16,26.02,5.64,38.59,9.99,3.97,1.37,7.89,3.06,11.16,5.7,8.61,6.95,10.02,20.79,3.98,29.77-5.21,7.75-14.9,11.52-24.23,11.88-11.8.46-25.7-2.87-36.56-7.33s-20.96-11.05-29.4-19.3c-4.81-4.7-9.08-9.94-12.67-15.62-7.98-12.63-12.76-27.69-11.18-42.55.98-9.26,4.63-18.32,10.56-25.52,2.88-3.5,6.53-7.09,10.61-9.17,2.7-1.38,9.23-3.17,11.63-.44,2.01,2.29-.33,5.52-1.27,7.69-1.39,3.21-2.46,6.56-3.12,9.99-.05.26-.1.51-.14.77Z"/>
    <path d="M580.73,602.88c1.5-3.3,12.67-26.86,36.3-31.11,13.16-2.37,34.1.54,38.02,12.81,2.36,7.39-2.4,15.2-4.83,18.65-23.16-.12-46.33-.23-69.49-.35Z"/>
  </g>
  <g>
    <path d="M53.79,729.78h-23.18c4.28-.21,7.37-2.31,8.44-7.45v-89.56c-1.07-5.15-4.16-7.14-8.44-7.46h23.18c-4.28.32-7.37,2.31-8.44,7.46v89.56c1.07,5.14,4.16,7.24,8.44,7.45Z"/>
    <path d="M156.51,729.78h-5.59c-6.3,0-9.04-3.25-9.04-7.35v-29.71c-1.19-17.95-17.12-35.7-37.69-35.7-9.39,0-18.79,3.67-25.33,10.71v54.7c1.07,5.04,4.16,7.14,8.32,7.35h-23.07c4.28-.21,7.37-2.31,8.44-7.35v-54.81c-1.07-5.04-4.16-7.14-8.44-7.35l14.74-4.51v8.92c7.25-5.56,16.88-8.92,27.35-8.92,23.07,0,41.97,16.48,41.97,36.96v29.71c1.07,5.04,4.16,7.14,8.32,7.35Z"/>
    <path d="M242.47,729.78c-7.61,0-9.04-3.67-9.04-8.92-7.37,5.57-16.88,8.92-27.35,8.92-23.19,0-41.97-16.59-41.97-37.06s18.79-37.06,41.97-37.06c10.46,0,19.97,3.36,27.35,8.92v-27.19c-1.07-5.14-4.16-7.14-8.44-7.45l14.74-4.62v97.02c1.07,5.14,4.16,7.24,8.44,7.45h-5.71ZM233.44,717.71v-46.41c-7.25-8.82-18.31-14.28-29.61-14.28-18.67,0-33.77,14.28-33.77,33.39s16.88,38.01,38.28,38.01c9.75,0,18.67-3.88,25.09-10.71Z"/>
    <path d="M277.43,729.78h-23.18c4.4-.21,7.37-2.31,8.56-7.35v-54.81c-1.19-5.04-4.16-7.14-8.56-7.35l14.74-4.51v9.34c7.97-6.09,18.19-9.45,27.7-9.45,12.13,0,23.3,5.56,27.58,18.48v.1c.59,1.47,1.19,3.46,1.19,4.73,0,1.89-1.07,2.62-2.26,2.62-1.78,0-3.92-1.47-4.4-3.25l-1.31-4.2c-4.28-11.13-14.15-16.69-24.61-16.69-8.44,0-17.24,3.67-23.9,10.92v54.07c1.07,5.04,4.28,7.14,8.44,7.35Z"/>
    <path d="M431.39,760.13c4.28-.31,7.37-2.31,8.44-7.45v-76.65c2.38-2.21,4.4-4.51,6.3-5.98v44.2c7.25,8.82,18.31,14.17,29.72,14.17,18.31,0,33.65-14.07,33.65-33.28s-17-38.11-38.4-38.11c-13.08,0-22.95,6.61-31.27,15.64-12.48,15.01-17,25.09-24.49,36.22v13.54c1.07,5.04,4.16,7.04,8.44,7.35h-5.71c-6.3,0-9.04-3.15-9.04-7.35v-5.25c-9.99,8.5-24.49,12.6-37.57,12.6-17,0-31.63-6.82-31.63-19.74v-.84c.83-19.42,35.31-16.06,55.29-28.35,3.8-2.31,8.2-5.35,10.46-8.82-2.74-6.83-7.61-11.97-16.29-14.07-2.73-.63-5.47-.94-8.2-.94-14.15,0-27.7,8.4-34.48,21.42-.83,1.79-3.45,3.25-5.23,3.25-.95,0-1.66-.53-1.66-1.68,0-.74.36-1.79,1.07-3.25,6.78-12.39,21.28-21.1,37.93-21.1,31.51,0,36.62,26.67,36.62,37.06v9.97c-1.43,2.21-4.16,5.98-6.3,8.5v-25.93c-.59-4.3-1.43-8.19-2.73-11.76-2.14,3.25-6.66,6.19-10.22,8.4-18.43,10.81-49.82,9.34-49.82,28.66,0,.94.12,2,.36,3.15,1.54,10.08,13.08,14.49,26.04,14.49,11.89,0,24.97-3.67,32.7-9.97,5.83-4.72,7.25-7.77,9.99-11.55,6.66-9.97,11.06-19.95,24.49-36.01v-2.94c-1.07-5.14-4.16-7.24-8.44-7.45l14.74-4.62v9.03c7.25-5.67,16.88-9.03,27.35-9.03,23.18,0,41.97,16.59,41.97,37.06s-18.79,37.06-41.97,37.06c-10.46,0-20.09-3.36-27.35-8.92v31.81c0,4.2-2.73,7.45-9.04,7.45h-5.71Z"/>
    <path d="M546.24,729.78h-23.18c4.4-.21,7.37-2.31,8.56-7.35v-54.81c-1.19-5.04-4.16-7.14-8.56-7.35l14.74-4.51v9.34c7.97-6.09,18.19-9.45,27.7-9.45,12.13,0,23.3,5.56,27.58,18.48v.1c.59,1.47,1.19,3.46,1.19,4.73,0,1.89-1.07,2.62-2.26,2.62-1.78,0-3.92-1.47-4.4-3.25l-1.31-4.2c-4.28-11.13-14.15-16.69-24.61-16.69-8.44,0-17.24,3.67-23.9,10.92v54.07c1.07,5.04,4.28,7.14,8.44,7.35Z"/>
    <path d="M639.93,729.78c-16.88,0-31.63-6.82-31.63-19.74v-.94c.95-19.42,35.31-16.06,55.41-28.24,3.69-2.21,8.2-5.35,10.58-8.82-2.97-6.83-7.73-11.97-16.53-13.96-2.73-.74-5.47-1.05-8.2-1.05-14.15,0-27.7,8.4-34.24,21.31-.95,1.79-3.57,3.25-5.35,3.25-.95,0-1.67-.42-1.67-1.57,0-.74.36-1.79,1.07-3.25,6.78-12.5,21.16-21,37.81-21,31.51,0,36.74,26.56,36.74,36.96v29.71c1.07,5.04,4.04,7.14,8.44,7.35h-5.83c-6.18,0-8.92-3.25-8.92-7.35v-5.35c-9.99,8.61-24.49,12.7-37.69,12.7ZM641.36,728.1c14.03,0,29.72-5.04,36.26-13.65v-29.19c-.59-4.2-1.55-8.29-2.85-11.86-2.14,3.36-6.54,6.3-10.22,8.4-18.31,10.92-49.7,9.45-49.7,28.77,0,.94.12,2,.24,3.04,1.66,10.18,13.2,14.49,26.28,14.49Z"/>
    <path d="M738.25,729.78c-19.38,0-29.49-8.29-37.69-13.65v-13.65c1.55,4.2,2.73,8.29,5.95,12.39,5.94,7.67,16.05,13.65,32.22,13.65,14.39,0,27.7-5.04,27.7-11.65s-13.67-13.12-30.44-20.47c-18.67-8.08-35.19-14.28-35.19-23.73,0-8.82,14.5-16.8,33.65-17.01,16.88,0,24.73,4.72,36.86,12.18v13.65c-1.55-3.99-2.62-7.77-5.59-11.65-5.47-7.14-15.34-12.92-31.98-12.92-13.2,0-27.23,5.78-27.23,13.86,0,1.58.71,3.25,2.14,4.62,10.46,10.6,46.13,19.95,59.45,31.5,2.5,2.1,3.92,4.51,3.92,7.03,0,2.21-1.07,4.51-3.45,6.93-6.3,6.62-18.43,8.92-30.32,8.92Z"/>
    <path d="M826.71,729.78h-.95c-13.44-.31-29.96-8.08-29.96-29.71v-20.05h-12.48v-1.37h12.48v-11.02c-1.19-5.04-4.16-7.14-8.44-7.35l14.74-4.51v22.89h29.37v1.37h-29.37v20.05c0,17.64,14.15,27.09,28.54,27.09,4.52,0,9.04-.94,13.2-2.83,10.94-4.93,12.6-10.81,13.67-20.79l2.85.32c0,14.59-17.24,25.93-33.65,25.93Z"/>
    <path d="M959.28,729.78h-5.71c-6.18,0-8.92-3.25-8.92-7.35v-29.71c-1.31-17.95-17.12-35.7-37.69-35.7-9.51,0-18.79,3.67-25.44,10.71v54.7c1.07,5.04,4.28,7.14,8.44,7.35h-23.18c4.4-.21,7.37-2.31,8.56-7.35v-85.15c-1.19-5.04-4.16-7.04-8.56-7.25l14.74-4.62v39.27c7.37-5.56,16.88-8.92,27.35-8.92,23.18,0,41.97,16.48,41.97,36.96v29.71c1.07,5.04,4.28,7.14,8.44,7.35Z"/>
    <path d="M996.97,729.78c-16.88,0-31.63-6.82-31.63-19.74v-.94c.95-19.42,35.31-16.06,55.41-28.24,3.69-2.21,8.2-5.35,10.58-8.82-2.97-6.83-7.73-11.97-16.53-13.96-2.73-.74-5.47-1.05-8.2-1.05-14.15,0-27.7,8.4-34.24,21.31-.95,1.79-3.57,3.25-5.35,3.25-.95,0-1.66-.42-1.66-1.57,0-.74.36-1.79,1.07-3.25,6.78-12.5,21.16-21,37.81-21,31.51,0,36.74,26.56,36.74,36.96v29.71c1.07,5.04,4.04,7.14,8.44,7.35h-5.83c-6.18,0-8.92-3.25-8.92-7.35v-5.35c-9.99,8.61-24.49,12.7-37.69,12.7ZM998.39,728.1c14.03,0,29.72-5.04,36.26-13.65v-29.19c-.59-4.2-1.54-8.29-2.85-11.86-2.14,3.36-6.54,6.3-10.22,8.4-18.31,10.92-49.7,9.45-49.7,28.77,0,.94.12,2,.24,3.04,1.66,10.18,13.2,14.49,26.28,14.49Z"/>
  </g>
</svg>