<?xml version="1.0" encoding="UTF-8"?>
<svg id="Layer_6" data-name="Layer 6" xmlns="http://www.w3.org/2000/svg" viewBox="0 0 1080 772.89">
  <defs>
    <style>
      .cls-1 {
        fill: #fff5e1;
      }

      .cls-2 {
        fill: #fff;
      }
    </style>
  </defs>
  <path class="cls-1" d="M852.54,597.99c0,46.52-15.22,89.46-40.97,124.16h-93.65c-10.9-39.98-47.44-69.33-90.89-69.33s-80.02,29.35-90.92,69.33h-99.3c2.32-12.67,3.51-25.71,3.51-39.02,0-9.98-.68-19.78-2.01-29.42-.44-3.2-.95-6.37-1.53-9.53-4.46-24.76-13.35-48.66-26.05-70.35-6.81-12.09-15.32-23.43-24.48-33.81-19.55-22.13-43.96-39.67-70.15-53.22-8.64-4.47-16.99-8.77-24.11-15.55-6.51-6.2,3.81-8.74,8.28-11.37,5.71-3.36,25.49-13.58,16.03-21.73-1.91-1.65-4.34-2.55-6.72-3.42-11.52-4.22-24.05-7.57-34.94-13.27-8.11-4.25-15.66-9.62-22.3-15.93-13-12.35-22.8-28.73-24.6-46.81-.58-5.86-.31-11.79.79-17.57,1.09-5.72,3.27-11.71,10.56-13.01,7.97,1.6,6.27,8.04,7.49,13.14,1.19,5.04,6.13,9.7,11.51,9.6,5.45-.14,10.15-6.78,11.58-11.37,1.8-5.82.92-12.16-1.16-17.88-2.04-5.72-5.21-10.93-8.1-16.28-.2-.41-.41-.82-.61-1.19-13.83-26.29-20.77-56.12-20.06-85.78.68-29.32,9.53-58.03,24.45-83.19,13.04-22.03,31.23-40.97,52.54-55.13,23.29-15.46,50.4-24.42,78.05-28.03,24.01-3.13,49.21-.78,70.83,10.05,15.8,7.9,29.49,20.64,37.63,36.37,11.75,22.68,8.62,52.88-9.64,71.41-8.07,8.21-18.8,13.79-30.17,15.63-12.5,2.04-27.28-.24-37.83-7.56-6.84-4.77-12.19-11.92-14.13-20.02-1.53-6.47-1.29-13.55,2.38-19.31,3-4.63,7.9-8.04,13.31-9.16,2.86-.58,6.23-.41,8.1,1.84,2.04,2.42,1.4,5.99.68,9.09-1.16,4.87-.37,9.16,3.27,12.84,5.58,5.69,15.46,5.04,21.45.34,5.79-4.53,8.48-12.4,7.8-19.72-1.19-12.43-11.27-22.82-23.09-26.77-23.74-7.98-52.52,6.04-69.05,23.2-15.37,15.95-23.84,38.6-21.67,60.65,2.16,22.05,15.26,42.97,34.66,53.67,16.63,9.18,36.38,10.65,55.37,10.33,35.24-.59,68.67.09,102.93,9.49,32.47,8.9,63.45,23.62,90.39,43.87,3.42,2.57,6.77,5.24,10.12,7.9,11.48,9.06,21.45,21.86,29.86,33.54,6.98,9.67,13.08,19.95,18.05,30.78,6.67,14.57,12.43,29.08,14.88,44.95,2.28,14.64,2.18,29.66-.44,44.27-4.77,26.32-20.47,50.91-41.2,67.66-21.9,17.74-51.05,27.31-79.28,26.32-20.91-.75-42.09-8.48-56.49-23.7-3.1-3.24-5.86-6.84-8.21-10.66-17.74-28.77-15.8-77.64,28.23-87.99,1.63-.37,3.3-.65,4.97-.78,8.45-.72,17.67.58,25.13,5.14,10.22,6.2,15.26,18.05,12.33,29.69-2.32,9.22-3.83,22.76,8.04,25.95,5.63,1.51,11.82-.58,16.18-4.45,4.36-3.87,7.07-9.3,8.72-14.89,4.8-16.28.88-36.88-11.63-48.85-13.39-12.8-31.38-19.82-49.85-19.91-25.3-.1-50.67,10.97-67.22,30.21-9.98,11.61-16.55,25.95-19.38,40.97-4.53,24.28,1.7,49.61,17.16,68.99,13.89,17.44,33.81,29.46,55.06,36.27,17.33,5.55,35.59,7.8,53.74,8.14,27.51.58,56.49-10.42,79-26.02,38.41-26.6,63.54-70.97,63.54-121.19,0-5.87-.38-11.74-1.09-17.57-.65-5.3-1.72-10.53-2.81-15.75-.09-.45-.13-1.05.29-1.25.32-.16.69.04.99.22,3.36,2.09,6.74,4.13,10.06,6.27,3.79,2.44,7.5,5.01,11.12,7.69,7.23,5.35,14.11,11.17,20.6,17.41s12.56,12.88,18.19,19.9c5.64,7.03,10.83,14.43,15.52,22.13,4.72,7.75,8.93,15.81,12.6,24.11,3.71,8.39,6.85,17.02,9.42,25.83,2.6,8.95,4.6,18.07,5.98,27.29,1.41,9.43,2.17,18.96,2.29,28.5.01.87.02,1.74.02,2.62Z"/>
  <path class="cls-2" d="M528.48,359.35c-.05.36-.11.72-.19,1.07-.6,2.62-2.38,5.09-4.93,5.91-3.12.99-6.56-.7-8.72-3.16s-3.37-5.59-4.83-8.52c-7.65-15.31-23.58-26.15-40.62-27.65-1.5-.13-4.61-.32-4.96-2.31-.32-1.85,2.36-2.52,3.66-3.03,3.75-1.49,7.71-2.45,11.73-2.89,7.92-.86,16.09.35,23.35,3.65,12.25,5.56,21.7,16.96,24.89,30.03.55,2.25.92,4.61.63,6.9Z"/>
  <path class="cls-2" d="M343.37,329.7c-1.37,7.76-.93,15.9,2.13,23.23,5.94,14.21,20.39,23.1,35.02,27.93,14.63,4.83,30.16,6.54,44.71,11.58,4.6,1.59,9.14,3.55,12.93,6.6,9.98,8.06,11.61,24.09,4.61,34.5-6.04,8.98-17.27,13.35-28.08,13.77-13.68.53-29.78-3.33-42.37-8.5-12.64-5.19-24.29-12.81-34.06-22.36-5.57-5.44-10.53-11.52-14.68-18.1-9.25-14.64-14.78-32.09-12.96-49.31,1.14-10.73,5.37-21.22,12.24-29.57,3.34-4.06,7.57-8.22,12.3-10.63,3.13-1.6,10.7-3.68,13.48-.51,2.33,2.65-.38,6.4-1.47,8.91-1.61,3.72-2.85,7.6-3.62,11.57-.06.3-.11.6-.17.9Z"/>
  <path class="cls-1" d="M587.2,717.51c1.74-3.83,14.69-31.12,42.07-36.06,15.25-2.75,39.51.63,44.06,14.84,2.73,8.56-2.78,17.62-5.6,21.61-26.84-.13-53.68-.27-80.52-.4Z"/>
</svg>